<svg width="18" height="17" viewBox="0 0 18 17" fill="none" xmlns="http://www.w3.org/2000/svg">
<path d="M11.4068 0.0199987C13.3468 0.0199987 14.8868 0.669999 16.0268 1.97C17.1668 3.25 17.7368 4.99 17.7368 7.19V17H11.8568V7.97C11.8568 7.01 11.6068 6.26 11.1068 5.72C10.6068 5.16 9.9368 4.88 9.0968 4.88C8.2168 4.88 7.5268 5.16 7.0268 5.72C6.5268 6.26 6.2768 7.01 6.2768 7.97V17H0.396797V0.169999H6.2768V2.57C6.7968 1.81 7.4968 1.2 8.3768 0.739998C9.2568 0.259999 10.2668 0.0199987 11.4068 0.0199987Z" fill="white"/>
<path d="M16.0268 1.97L15.2749 2.62934L15.28 2.63509L16.0268 1.97ZM17.7368 17V18H18.7368V17H17.7368ZM11.8568 17H10.8568V18H11.8568V17ZM11.1068 5.72L10.3609 6.38601L10.3669 6.39277L10.373 6.39941L11.1068 5.72ZM7.0268 5.72L7.76056 6.39941L7.76671 6.39277L7.77273 6.38601L7.0268 5.72ZM6.2768 17V18H7.2768V17H6.2768ZM0.396797 17H-0.603203V18H0.396797V17ZM0.396797 0.169999V-0.830001H-0.603203V0.169999H0.396797ZM6.2768 0.169999H7.2768V-0.830001H6.2768V0.169999ZM6.2768 2.57H5.2768V5.80244L7.1021 3.13468L6.2768 2.57ZM8.3768 0.739998L8.84005 1.62622L8.84789 1.62213L8.85565 1.61789L8.3768 0.739998ZM11.4068 1.02C13.098 1.02 14.3492 1.57368 15.2749 2.62932L16.7787 1.31068C15.4244 -0.233686 13.5956 -0.980001 11.4068 -0.980001V1.02ZM15.28 2.63509C16.2149 3.68476 16.7368 5.1637 16.7368 7.19H18.7368C18.7368 4.8163 18.1187 2.81524 16.7736 1.30491L15.28 2.63509ZM16.7368 7.19V17H18.7368V7.19H16.7368ZM17.7368 16H11.8568V18H17.7368V16ZM12.8568 17V7.97H10.8568V17H12.8568ZM12.8568 7.97C12.8568 6.83701 12.5587 5.81618 11.8406 5.04059L10.373 6.39941C10.6549 6.70382 10.8568 7.18299 10.8568 7.97H12.8568ZM11.8527 5.05398C11.1393 4.25489 10.1839 3.88 9.0968 3.88V5.88C9.68965 5.88 10.0743 6.06511 10.3609 6.38601L11.8527 5.05398ZM9.0968 3.88C7.9858 3.88 7.00373 4.24437 6.28086 5.05398L7.77273 6.38601C8.04987 6.07563 8.44779 5.88 9.0968 5.88V3.88ZM6.29304 5.04059C5.5749 5.81618 5.2768 6.83701 5.2768 7.97H7.2768C7.2768 7.18299 7.4787 6.70382 7.76056 6.39941L6.29304 5.04059ZM5.2768 7.97V17H7.2768V7.97H5.2768ZM6.2768 16H0.396797V18H6.2768V16ZM1.3968 17V0.169999H-0.603203V17H1.3968ZM0.396797 1.17H6.2768V-0.830001H0.396797V1.17ZM5.2768 0.169999V2.57H7.2768V0.169999H5.2768ZM7.1021 3.13468C7.52243 2.52037 8.09359 2.01642 8.84005 1.62622L7.91354 -0.146227C6.9 0.383577 6.07117 1.09963 5.45149 2.00531L7.1021 3.13468ZM8.85565 1.61789C9.56961 1.22846 10.4109 1.02 11.4068 1.02V-0.980001C10.1227 -0.980001 8.94398 -0.708462 7.89795 -0.137897L8.85565 1.61789Z" fill="black"/>
</svg>
